HIERARCHY
ROOT Hips
{
	OFFSET -10.056300 7.733760 -472.550000
	CHANNELS 6 Xposition Yposition Zposition Zrotation Yrotation Xrotation 
	JOINT Spine
	{
		OFFSET 0.000000 0.000000 0.000000
		CHANNELS 3 Zrotation Yrotation Xrotation
		JOINT Spine1
		{
			OFFSET 19.000000 0.000000 0.000000
			CHANNELS 3 Zrotation Yrotation Xrotation
			JOINT Neck
			{
				OFFSET 22.500000 0.600000 0.000000
				CHANNELS 3 Zrotation Yrotation Xrotation
				JOINT Head
				{
					OFFSET 14.000000 0.030878 0.000000
					CHANNELS 3 Zrotation Yrotation Xrotation
					End Site
					{
						OFFSET 17.000000 0.000000 0.000000
					}
				}
			}
			JOINT LeftShoulder
			{
				OFFSET 19.800000 3.700000 4.300000
				CHANNELS 3 Zrotation Yrotation Xrotation
				JOINT LeftArm
				{
					OFFSET 8.000000 0.000000 0.000000
					CHANNELS 3 Zrotation Yrotation Xrotation
					JOINT LeftForeArm
					{
						OFFSET 15.200000 0.000000 0.000000
						CHANNELS 3 Zrotation Yrotation Xrotation
						JOINT LeftHand
						{
							OFFSET 17.800000 0.000000 0.000000
							CHANNELS 3 Zrotation Yrotation Xrotation
							End Site
							{
								OFFSET 7.200000 0.000000 0.000000
							}
						}
					}
				}
			}
			JOINT RightShoulder
			{
				OFFSET 19.800000 3.700000 -4.300000
				CHANNELS 3 Zrotation Yrotation Xrotation
				JOINT RightArm
				{
					OFFSET 8.000000 0.000000 0.151654
					CHANNELS 3 Zrotation Yrotation Xrotation
					JOINT RightForeArm
					{
						OFFSET 15.200000 0.000000 0.000000
						CHANNELS 3 Zrotation Yrotation Xrotation
						JOINT RightHand
						{
							OFFSET 17.800000 0.000000 0.000000
							CHANNELS 3 Zrotation Yrotation Xrotation
							End Site
							{
								OFFSET 7.200000 0.000000 0.000000
							}
						}
					}
				}
			}
		}
	}
	JOINT LeftUpLeg
	{
		OFFSET 5.984250 -7.666000 4.788790
		CHANNELS 3 Zrotation Yrotation Xrotation
		JOINT LeftLeg
		{
			OFFSET 16.000000 0.000000 0.000000
			CHANNELS 3 Zrotation Yrotation Xrotation
			JOINT LeftFoot
			{
				OFFSET 18.000000 0.000000 0.000000
				CHANNELS 3 Zrotation Yrotation Xrotation
				End Site
				{
					OFFSET 0.000000 -10.800000 0.000000
				}
			}
		}
	}
	JOINT RightUpLeg
	{
		OFFSET 5.984250 -7.665980 -4.788790
		CHANNELS 3 Zrotation Yrotation Xrotation
		JOINT RightLeg
		{
			OFFSET 16.000000 0.000000 0.000000
			CHANNELS 3 Zrotation Yrotation Xrotation
			JOINT RightFoot
			{
				OFFSET 18.000000 0.000000 0.000000
				CHANNELS 3 Zrotation Yrotation Xrotation
				End Site
				{
					OFFSET 0.000000 -10.800000 0.000000
				}
			}
		}
	}
	JOINT Tail
	{
		OFFSET 6.836960 -0.722574 0.000000
		CHANNELS 3 Zrotation Yrotation Xrotation
		JOINT Tail1
		{
			OFFSET 12.000000 0.000000 0.000000
			CHANNELS 3 Zrotation Yrotation Xrotation
			End Site
			{
				OFFSET 12.000000 0.000000 0.000000
			}
		}
	}
}
MOTION
Frames: 15
Frame Time: 0.033333
1985133.875000 -507831.843750 1425018.750000 156.013077 24.911299 -128.426804 -136.222977 -8.160991 -0.726699 -122.338669 -55.644588 56.512318 -11.307163 6.616807 69.272346 49.369568 78.152267 -51.060936 2.661764 71.971298 -103.977020 -33.414646 -46.687561 151.462845 -138.188538 -13.336570 -146.384293 -156.304352 4.291506 -167.321960 179.239868 21.470190 154.804993 -41.616829 -31.904608 136.914871 122.801903 -59.098938 -68.852783 141.882935 0.588073 -51.386818 -125.664436 -49.731400 -23.603409 90.047707 -28.693523 60.208126 138.512878 -55.642204 -112.774696 -145.201233 -8.154652 0.455006 49.994305 -20.098949 -36.172127 141.542557 -6.220155 -58.304993 -131.025482 -53.217766 -30.315168 -5.091413 -7.568706 -141.599442 
2018803.000000 -519226.812500 1450274.000000 155.964554 24.893978 -128.429855 -136.216217 -8.160294 -0.731914 -122.393585 -55.661083 56.562954 -11.279571 6.646363 69.252861 49.413502 78.155792 -51.025162 2.906128 71.910103 -103.673737 -33.394779 -46.719719 151.460495 -138.122192 -13.414504 -146.438599 -156.288620 4.295435 -167.364822 179.248764 21.530859 154.846634 -41.553463 -31.950336 136.901443 123.097488 -59.078838 -69.276733 141.913818 0.595891 -51.387932 -125.659752 -49.700630 -23.618454 89.992508 -28.686113 60.161121 138.503342 -55.706383 -112.801575 -145.187393 -8.176457 0.427647 49.958477 -20.166695 -36.176693 141.480865 -6.244003 -58.286419 -130.962738 -53.167728 -30.396441 -5.037950 -7.560460 -141.599777 
2052174.000000 -530789.187500 1475434.750000 155.936783 24.861244 -128.401443 -136.209152 -8.160055 -0.738358 -122.453018 -55.680813 56.624981 -11.243855 6.670116 69.230865 49.420181 78.157043 -51.022934 3.215056 71.842926 -103.342133 -33.369617 -46.743443 151.441071 -138.086288 -13.447129 -146.436508 -156.289520 4.264196 -167.479736 179.292435 21.580879 154.905106 -41.490631 -32.000385 136.886749 123.222931 -59.049530 -69.562050 141.907120 0.593148 -51.380219 -125.651627 -49.675434 -23.626163 89.934547 -28.691288 60.099792 138.505295 -55.768017 -112.832794 -145.162521 -8.207153 0.392877 49.924946 -20.215717 -36.172073 141.455566 -6.256560 -58.318829 -130.877060 -53.171867 -30.461193 -4.990792 -7.559934 -141.597076 
2085581.125000 -542493.000000 1500542.500000 155.886444 24.823957 -128.411942 -136.203491 -8.158494 -0.744572 -122.504944 -55.695969 56.675541 -11.217146 6.683660 69.209328 49.401958 78.165565 -51.044670 3.619026 71.753883 -102.958405 -33.372932 -46.762798 151.440933 -138.087616 -13.429286 -146.373138 -156.295990 4.188282 -167.600555 179.422882 21.623940 155.013855 -41.434322 -32.047886 136.879944 123.267517 -59.032856 -69.759224 141.908127 0.586321 -51.377625 -125.640694 -49.649109 -23.631300 89.899773 -28.702574 60.025757 138.512848 -55.817787 -112.851463 -145.134033 -8.240604 0.363025 49.833405 -20.269896 -36.125076 141.426193 -6.276235 -58.350010 -130.741760 -53.212952 -30.546335 -4.953354 -7.561706 -141.583878 
2119518.750000 -553952.937500 1525664.750000 155.853836 24.807358 -128.417831 -136.203400 -8.156034 -0.749494 -122.558670 -55.714733 56.734344 -11.202986 6.683975 69.192284 49.357815 78.174812 -51.090237 3.988983 71.695320 -102.647964 -33.387997 -46.774914 151.457642 -138.105072 -13.390440 -146.280624 -156.300262 4.111547 -167.709869 179.548035 21.648302 155.117508 -41.381989 -32.087032 136.861404 123.273788 -59.058716 -69.891815 141.928375 0.609087 -51.330238 -125.621567 -49.629200 -23.643221 89.853279 -28.709486 59.954399 138.517853 -55.873714 -112.867371 -145.097763 -8.276957 0.327216 49.769840 -20.334465 -36.071030 141.417877 -6.291655 -58.371826 -130.652603 -53.272671 -30.585100 -4.922986 -7.573829 -141.534592 
2153041.000000 -564641.937500 1550901.625000 155.836212 24.751587 -128.426956 -136.207428 -8.154944 -0.754378 -122.595917 -55.731647 56.775143 -11.211347 6.680279 69.183479 49.298367 78.183998 -51.146580 4.277788 71.667419 -102.406204 -33.423485 -46.812111 151.472916 -138.127090 -13.354753 -146.209854 -156.307953 4.067240 -167.825409 179.718384 21.656439 155.298691 -41.340809 -32.123314 136.834885 123.367241 -59.119110 -70.075325 141.969025 0.662233 -51.249794 -125.595604 -49.612785 -23.664438 89.823715 -28.718477 59.894165 138.543808 -55.935379 -112.912605 -145.052032 -8.303459 0.287521 49.682407 -20.412138 -36.015095 141.474106 -6.279221 -58.371258 -130.665726 -53.383549 -30.519104 -4.911861 -7.602407 -141.437012 
2186766.250000 -576667.062500 1576105.500000 155.827774 24.734241 -128.448349 -136.210388 -8.155887 -0.758326 -122.633858 -55.750149 56.819290 -11.222901 6.678479 69.178223 49.241890 78.215614 -51.202194 4.414101 71.633636 -102.255089 -33.454418 -46.842979 151.465973 -138.153717 -13.343238 -146.126877 -156.314362 4.021519 -167.908127 179.833984 21.652306 155.445801 -41.315727 -32.155910 136.808350 123.439407 -59.167946 -70.220833 142.013565 0.709832 -51.176651 -125.590179 -49.615372 -23.672697 89.817574 -28.737497 59.835953 138.578186 -55.977169 -112.952988 -145.007477 -8.326720 0.245917 49.591930 -20.444525 -35.953442 141.582062 -6.245440 -58.404152 -130.900406 -53.499775 -30.294735 -4.932310 -7.658650 -141.334656 
2220279.250000 -588944.750000 1601205.000000 155.830505 24.725863 -128.458099 -136.211807 -8.157285 -0.763301 -122.658501 -55.763416 56.848797 -11.239071 6.672972 69.172310 49.138374 78.252823 -51.313976 4.499257 71.631119 -102.162231 -33.506996 -46.873360 151.458252 -138.194153 -13.326846 -146.040085 -156.322250 3.967444 -167.962708 179.951279 21.634094 155.596863 -41.305092 -32.189205 136.786270 123.428055 -59.221397 -70.266815 142.038895 0.736269 -51.143482 -125.582161 -49.610252 -23.698013 89.820488 -28.758066 59.772545 138.606155 -55.993149 -112.960480 -144.977448 -8.351596 0.207910 49.533939 -20.456964 -35.881989 141.641495 -6.247200 -58.458622 -131.311554 -53.595997 -29.976671 -4.971199 -7.736750 -141.281311 
2253645.250000 -600512.875000 1626038.125000 155.824753 24.724932 -128.471268 -136.215668 -8.159329 -0.770122 -122.681450 -55.779007 56.885052 -11.254266 6.664789 69.163330 49.022339 78.276482 -51.444626 4.509551 71.670692 -102.169403 -33.553539 -46.889233 151.450760 -138.258286 -13.324196 -145.958450 -156.332779 3.946927 -168.052444 -179.908447 21.586901 155.692398 -41.302036 -32.222404 136.770370 123.362625 -59.307877 -70.277222 142.060226 0.756361 -51.113003 -125.576637 -49.600994 -23.733438 89.823235 -28.780813 59.727749 138.619843 -56.024998 -112.962234 -144.956100 -8.370057 0.169453 49.470093 -20.488575 -35.779179 141.690643 -6.253696 -58.483013 -131.607849 -53.684288 -29.750942 -5.012091 -7.813600 -141.254349 
2286920.250000 -611263.687500 1650943.500000 155.813934 24.725664 -128.472000 -136.224487 -8.160748 -0.776384 -122.701828 -55.790070 56.914391 -11.259737 6.645099 69.162544 48.892696 78.298401 -51.591694 4.588640 71.696426 -102.155830 -33.610237 -46.904125 151.448364 -138.316513 -13.323186 -145.887619 -156.346252 3.956110 -168.154877 -179.735550 21.534246 155.818848 -41.306087 -32.262096 136.767197 123.259651 -59.426514 -70.227409 142.092407 0.776167 -51.088364 -125.571030 -49.612919 -23.779823 89.847046 -28.805614 59.704414 138.631119 -56.060337 -112.972359 -144.945175 -8.383343 0.121471 49.410244 -20.532511 -35.668388 141.765411 -6.245995 -58.480549 -131.676758 -53.791981 -29.679106 -5.046113 -7.866937 -141.222458 
2320286.000000 -622227.687500 1676000.750000 155.807922 24.732052 -128.493286 -136.233902 -8.163701 -0.784383 -122.713661 -55.808365 56.934200 -11.255196 6.617264 69.164505 48.765465 78.313370 -51.741207 4.624404 71.719185 -102.194389 -33.648613 -46.905376 151.440811 -138.393265 -13.317723 -145.797852 -156.365967 3.962914 -168.250931 -179.527222 21.487442 155.984314 -41.320312 -32.299587 136.765396 123.170555 -59.511204 -70.164886 142.115250 0.792097 -51.056198 -125.580711 -49.641048 -23.816004 89.888817 -28.838560 59.685749 138.631622 -56.078712 -112.955956 -144.921570 -8.401467 0.075162 49.346565 -20.560936 -35.576714 141.872025 -6.213457 -58.457932 -131.724167 -53.850060 -29.613697 -5.070733 -7.914550 -141.252411 
2353417.000000 -633847.312500 1700922.375000 155.782379 24.745331 -128.493607 -136.241745 -8.167222 -0.790908 -122.724297 -55.828636 56.949745 -11.242228 6.572386 69.167381 48.662796 78.321831 -51.867367 4.659781 71.785477 -102.283943 -33.694511 -46.890636 151.431564 -138.495972 -13.275332 -145.691376 -156.396286 3.963975 -168.332001 -179.359787 21.418425 156.072281 -41.346981 -32.337093 136.768677 123.164558 -59.585541 -70.166389 142.134064 0.832463 -50.974445 -125.603455 -49.666435 -23.838238 89.968765 -28.884912 59.668774 138.638626 -56.089870 -112.954384 -144.893829 -8.420043 0.028632 49.269596 -20.590445 -35.467915 141.997910 -6.161614 -58.400307 -131.709229 -53.850266 -29.646980 -5.080785 -7.946499 -141.325165 
2386823.500000 -646334.062500 1725736.625000 155.808212 24.715536 -128.494186 -136.253326 -8.170616 -0.795616 -122.730476 -55.852055 56.968044 -11.228853 6.517350 69.170204 48.595356 78.335098 -51.951241 4.727120 71.839813 -102.332542 -33.740971 -46.892788 151.416702 -138.572052 -13.241821 -145.565811 -156.420059 3.918136 -168.316254 -179.193344 21.342606 156.128220 -41.385918 -32.373749 136.784912 123.213829 -59.647610 -70.216660 142.126358 0.875844 -50.899815 -125.637131 -49.677666 -23.850643 90.053993 -28.922810 59.681602 138.642700 -56.098984 -112.948311 -144.883453 -8.426264 -0.011131 49.258236 -20.620623 -35.383778 142.051147 -6.147552 -58.412109 -131.518311 -53.750126 -29.862309 -5.067313 -7.956353 -141.429825 
2420572.750000 -658217.625000 1750511.500000 155.820389 24.715832 -128.472412 -136.266098 -8.174066 -0.802187 -122.743820 -55.877216 56.997654 -11.217767 6.469694 69.171204 48.574810 78.360596 -51.979397 4.906424 71.855133 -102.243576 -33.787716 -46.895943 151.415375 -138.620346 -13.248351 -145.463623 -156.420181 3.911178 -168.224319 -179.053436 21.271582 156.124451 -41.415009 -32.404404 136.800385 123.318596 -59.689587 -70.288773 142.123886 0.919841 -50.808987 -125.683327 -49.686661 -23.840616 90.093025 -28.956352 59.695305 138.642349 -56.100502 -112.941429 -144.888885 -8.416227 -0.039851 49.296768 -20.654810 -35.311077 142.090912 -6.140113 -58.422882 -131.247543 -53.573795 -30.160147 -5.040924 -7.933002 -141.502991 
2454079.750000 -668775.937500 1775383.375000 155.779816 24.742373 -128.487091 -136.276901 -8.175266 -0.805884 -122.756744 -55.898838 57.031696 -11.213401 6.426156 69.172310 48.566914 78.386971 -51.990368 5.178098 71.849480 -102.073296 -33.825363 -46.892117 151.416183 -138.650253 -13.289821 -145.429489 -156.413940 3.962663 -168.137238 -178.878174 21.221333 156.193268 -41.440228 -32.418324 136.809036 123.347923 -59.717045 -70.273232 142.139175 0.972224 -50.722633 -125.744469 -49.702312 -23.806047 90.128845 -28.982384 59.703091 138.643097 -56.099884 -112.952530 -144.901627 -8.402889 -0.059771 49.336761 -20.651386 -35.268692 142.133286 -6.133239 -58.422497 -130.895432 -53.387070 -30.539448 -4.998727 -7.880611 -141.570480 
